<svg width="448" height="373" viewBox="0 0 448 373" fill="none" xmlns="http://www.w3.org/2000/svg">
<path d="M461.862 152.484C362.155 138.086 271.382 221.363 259.112 338.501L257.921 349.709C257.603 352.939 261.693 354.495 263.559 351.862C287.424 317.722 318.277 280.151 356.199 246.29C363.743 239.55 375.616 239.311 382.684 246.569C390.228 254.307 389.712 266.711 381.731 273.81C343.571 307.751 312.797 346.318 289.489 380.618C288.059 382.692 289.608 385.564 292.149 385.524C381.413 383.769 458.248 304.999 469.446 197.951L472.543 168.477C473.377 160.58 468.612 153.441 461.902 152.444L461.862 152.484Z" fill="#1E1E1E"/>
<path d="M10.7762 152.484C110.483 138.086 201.256 221.363 213.526 338.501L214.717 349.708C215.035 352.939 210.945 354.494 209.079 351.862C185.214 317.722 154.361 280.151 116.44 246.29C108.895 239.55 97.0223 239.31 89.9543 246.569C82.4097 254.307 82.9259 266.71 90.9073 273.81C129.067 307.751 159.841 346.318 183.149 380.618C184.579 382.692 183.03 385.564 180.489 385.524C91.225 383.769 14.3896 304.999 3.19195 197.951L0.0947116 168.517C-0.73916 160.62 4.02582 153.481 10.7365 152.484H10.7762Z" fill="#1E1E1E"/>
<path d="M225.116 0.925312C182.511 5.66191 148.061 40.1316 143.367 82.8008C138.355 128.415 166.36 168.259 206.459 181.553C210.317 182.827 214.335 179.961 214.335 175.901V94.5826C214.335 83.3978 222.53 73.3674 233.668 72.2927C246.438 71.0588 257.218 81.0892 257.218 93.6273V175.861C257.218 179.921 261.196 182.827 265.015 181.553C302.011 169.293 328.743 134.465 328.743 93.3486C328.743 38.4599 281.245 -5.32381 225.155 0.925312H225.116Z" fill="#1E1E1E"/>
</svg>
