<svg width="20" height="20" viewBox="0 0 20 20" fill="none" xmlns="http://www.w3.org/2000/svg">
<path d="M16.6571 19.9998H3.34292C1.50308 19.9998 0 18.4968 0 16.657V3.34289C0 1.50307 1.50308 0 3.34292 0H16.6571C18.4969 0 20 1.50307 20 3.34289V16.657C20 18.505 18.5051 19.9998 16.6571 19.9998Z" fill="white"/>
<path d="M10 15C8.664 15 7.408 14.48 6.464 13.536C5.52 12.592 5 11.336 5 10C5 8.664 5.52 7.408 6.464 6.464C7.408 5.52 8.664 5 10 5C11.336 5 12.592 5.52 13.536 6.464C14.48 7.408 15 8.664 15 10C15 11.336 14.48 12.592 13.536 13.536C12.584 14.48 11.336 15 10 15ZM10 6.064C7.832 6.064 6.064 7.824 6.064 10C6.064 12.168 7.824 13.936 10 13.936C12.168 13.936 13.936 12.176 13.936 10C13.928 7.832 12.168 6.064 10 6.064Z" fill="#1E1E1E"/>
<path d="M16.138 4.70224C16.6824 4.70224 17.1236 4.26096 17.1236 3.7166C17.1236 3.17224 16.6824 2.73096 16.138 2.73096C15.5936 2.73096 15.1523 3.17224 15.1523 3.7166C15.1523 4.26096 15.5936 4.70224 16.138 4.70224Z" fill="#1E1E1E"/>
</svg>
