<svg width="16" height="16" viewBox="0 0 16 16" fill="none" xmlns="http://www.w3.org/2000/svg">
<path fill-rule="evenodd" clip-rule="evenodd" d="M12.4146 1.11024C13.1104 0.176644 14.6767 -0.323341 15.5 0.499992C16.3233 1.32332 15.8233 2.88955 14.8897 3.58536C14.6778 3.7433 14.4747 3.91848 14.2823 4.1109C12.1344 6.25878 12.1344 9.74119 14.2823 11.8891C14.4747 12.0815 14.6778 12.2567 14.8898 12.4146C15.8234 13.1104 16.3234 14.6767 15.5001 15.5001C14.6767 16.3234 13.1104 15.8234 12.4146 14.8898C12.2567 14.6779 12.0815 14.4748 11.8891 14.2823C9.7412 12.1344 6.2588 12.1344 4.11092 14.2823C3.91849 14.4748 3.7433 14.6779 3.58535 14.8898C2.88955 15.8234 1.32329 16.3234 0.499954 15.5001C-0.323385 14.6768 0.17662 13.1105 1.11023 12.4147C1.32216 12.2568 1.5253 12.0816 1.71772 11.8891C3.86561 9.74126 3.86561 6.25885 1.71772 4.11097C1.52531 3.91855 1.32218 3.74337 1.11026 3.58543C0.17665 2.88961 -0.323353 1.32335 0.499992 0.500008C1.32333 -0.323331 2.88957 0.176659 3.58539 1.11026C3.74333 1.32217 3.9185 1.5253 4.11092 1.71771C6.2588 3.86559 9.7412 3.86559 11.8891 1.71771C12.0815 1.52529 12.2567 1.32216 12.4146 1.11024Z" fill="#2DC2BD"/>
</svg>
