<svg width="198" height="21" viewBox="0 0 198 21" fill="none" xmlns="http://www.w3.org/2000/svg">
<g clip-path="url(#clip0_531_364)">
<path d="M24.6335 8.23503C19.3074 7.46141 14.4558 11.9284 13.804 18.2089L13.7421 18.812C13.7256 18.9825 13.9442 19.0698 14.0433 18.9284C15.318 17.0984 16.9641 15.0853 18.9897 13.2677C19.3941 12.9059 20.0253 12.8934 20.4048 13.2843C20.8091 13.7003 20.7802 14.3657 20.3553 14.7442C18.3173 16.566 16.6712 18.6331 15.4294 20.4715C15.3552 20.5838 15.4377 20.7377 15.5697 20.7335C20.3388 20.6379 24.4437 16.4163 25.0419 10.6765L25.2069 9.09599C25.2523 8.67175 24.9965 8.2891 24.6376 8.23503H24.6335Z" fill="white"/>
<path d="M0.573317 8.23503C5.89936 7.46141 10.751 11.9284 11.4028 18.2089L11.4647 18.812C11.4812 18.9825 11.2625 19.0698 11.1635 18.9284C9.88873 17.0984 8.24265 15.0853 6.21702 13.2677C5.81272 12.9059 5.18152 12.8934 4.80197 13.2843C4.39767 13.7003 4.42655 14.3657 4.85148 14.7442C6.88948 16.566 8.53556 18.6331 9.77734 20.4715C9.8516 20.5838 9.76909 20.7377 9.63708 20.7335C4.86798 20.6379 0.763091 16.4163 0.164891 10.6765L0.00399594 9.09183C-0.0413847 8.66759 0.214397 8.28494 0.573317 8.23087V8.23503Z" fill="white"/>
<path d="M11.9929 0.0331435C9.71971 0.286857 7.88386 2.14188 7.6322 4.43362C7.36404 6.88341 8.85748 9.02542 10.9945 9.74081C11.2008 9.81151 11.4153 9.65346 11.4153 9.43718V5.06998C11.4153 4.46689 11.8526 3.93035 12.4467 3.87212C13.1274 3.80557 13.7008 4.34627 13.7008 5.02007V9.43718C13.7008 9.65346 13.9112 9.81151 14.1175 9.74081C16.0895 9.08365 17.5169 7.21199 17.5169 4.99928C17.5211 2.05037 14.988 -0.303755 11.9929 0.0331435Z" fill="white"/>
<path d="M34.9761 20.7632V4.10547H38.3961V17.7145H47.4351V20.7591H34.9761V20.7632Z" fill="white"/>
<path d="M53.0046 20.9751C52.1383 20.9751 51.3668 20.8129 50.6943 20.4884C50.0178 20.164 49.4897 19.7148 49.1143 19.145C48.7347 18.5752 48.5491 17.918 48.5491 17.1694C48.5491 15.9798 48.9905 15.0565 49.8692 14.3993C50.7521 13.7422 51.9774 13.4136 53.5492 13.4136C54.6177 13.4136 55.6243 13.58 56.5691 13.9127V13.0101C56.5691 12.2947 56.3463 11.7582 55.909 11.3922C55.4676 11.0262 54.824 10.8432 53.9741 10.8432C53.4708 10.8432 52.9139 10.9264 52.2992 11.0927C51.6845 11.2591 50.9914 11.517 50.224 11.8663L49.0689 9.44151C50.0425 9.01311 50.9708 8.68869 51.8536 8.46409C52.7365 8.24365 53.6152 8.13135 54.4981 8.13135C56.1813 8.13135 57.4808 8.53064 58.3926 9.33337C59.3043 10.1361 59.7622 11.2633 59.7622 12.7231V20.763H56.5773V19.8812C56.074 20.2638 55.5294 20.5384 54.9477 20.713C54.3661 20.8877 53.7225 20.9751 53.0129 20.9751H53.0046ZM51.6143 17.0987C51.6143 17.5728 51.8206 17.9513 52.229 18.23C52.6375 18.5087 53.182 18.6459 53.8586 18.6459C54.3949 18.6459 54.8859 18.5835 55.3355 18.4546C55.7852 18.3298 56.1978 18.1218 56.5732 17.8349V16.0256C56.1813 15.8509 55.7729 15.7261 55.3479 15.6554C54.923 15.5847 54.4651 15.5473 53.9782 15.5473C53.2398 15.5473 52.6581 15.6804 52.2414 15.9507C51.8247 16.2211 51.6143 16.5996 51.6143 17.0945V17.0987Z" fill="white"/>
<path d="M62.2085 20.763V8.36842H65.4429V9.3916C66.3876 8.55143 67.5428 8.13135 68.9125 8.13135C69.8572 8.13135 70.6947 8.34347 71.4249 8.76355C72.1551 9.18364 72.7286 9.76177 73.137 10.5021C73.5454 11.2425 73.7517 12.0909 73.7517 13.06V20.7671H70.542V13.5592C70.542 12.7523 70.311 12.1117 69.8448 11.6459C69.3786 11.1801 68.7557 10.943 67.9677 10.943C67.4149 10.943 66.9281 11.0511 66.5032 11.2633C66.0782 11.4795 65.7234 11.7832 65.4429 12.1783V20.7671H62.2085V20.763Z" fill="white"/>
<path d="M81.4171 20.9295C80.2537 20.9295 79.1976 20.6425 78.2528 20.0727C77.3081 19.5029 76.5573 18.7376 76.0003 17.7768C75.4434 16.816 75.1628 15.743 75.1628 14.5534C75.1628 13.3639 75.4434 12.3074 76.0003 11.3425C76.5573 10.3734 77.3164 9.60808 78.2776 9.04658C79.2389 8.48509 80.3156 8.20226 81.512 8.20226C82.1267 8.20226 82.7125 8.28544 83.2695 8.45181C83.8264 8.61818 84.3586 8.85942 84.8619 9.17552V4.10957L88.0963 3.56055V20.7632H84.9114V19.74C83.9048 20.5344 82.7414 20.9295 81.4171 20.9295ZM81.9369 18.147C82.5186 18.147 83.0632 18.043 83.5665 17.8392C84.0698 17.6313 84.503 17.3401 84.8661 16.9575V12.1286C84.503 11.7626 84.0698 11.4839 83.5665 11.2843C83.0632 11.0846 82.5186 10.9848 81.9369 10.9848C81.2604 10.9848 80.6498 11.1387 80.1093 11.4506C79.5689 11.7626 79.1357 12.1826 78.8222 12.7234C78.5086 13.2641 78.3519 13.8671 78.3519 14.5326C78.3519 15.1981 78.5128 15.8511 78.8345 16.3876C79.1563 16.9283 79.5854 17.3567 80.1217 17.6728C80.658 17.9889 81.2604 18.147 81.9369 18.147Z" fill="white"/>
<path d="M101.455 21C100.134 21 98.8348 20.7463 97.5601 20.2389C96.2853 19.7314 95.1549 19.0244 94.1606 18.1218L96.1203 15.6221C97.0774 16.4789 98.0056 17.1028 98.8926 17.4896C99.7796 17.8806 100.72 18.0719 101.714 18.0719C102.408 18.0719 103.006 17.9887 103.509 17.8224C104.012 17.656 104.4 17.4148 104.677 17.0986C104.953 16.7825 105.089 16.4082 105.089 15.9798C105.089 15.41 104.883 14.965 104.474 14.6489C104.066 14.3328 103.365 14.0957 102.375 13.9335L99.0948 13.3637C97.6962 13.1099 96.6236 12.6067 95.8851 11.8538C95.1466 11.101 94.7753 10.1236 94.7753 8.91743C94.7753 7.88594 95.0435 6.99586 95.5798 6.23888C96.1161 5.48606 96.867 4.90792 97.8324 4.50032C98.8018 4.09687 99.9529 3.89307 101.29 3.89307C102.486 3.89307 103.695 4.09687 104.912 4.50032C106.133 4.90376 107.197 5.4819 108.109 6.2264L106.269 8.77185C104.536 7.4409 102.799 6.77126 101.054 6.77126C100.44 6.77126 99.9075 6.85029 99.4496 7.00834C98.9916 7.16639 98.6451 7.38683 98.4017 7.66134C98.1583 7.94001 98.0345 8.26027 98.0345 8.62628C98.0345 9.16698 98.2202 9.57043 98.5873 9.84078C98.9586 10.1111 99.5568 10.3232 100.394 10.4855L103.509 10.9846C105.159 11.2549 106.401 11.7831 107.226 12.5651C108.051 13.3512 108.464 14.3868 108.464 15.672C108.464 16.7493 108.175 17.6851 107.602 18.4795C107.028 19.2739 106.215 19.8937 105.172 20.3345C104.124 20.7796 102.886 21 101.455 21Z" fill="white"/>
<path d="M116.179 20.9545C114.825 20.9545 113.798 20.6426 113.097 20.0145C112.396 19.3865 112.049 18.4798 112.049 17.2902V11.0805H109.524V8.36865H112.049V5.20347L115.259 4.46729V8.36865H118.798V11.0805H115.259V16.5998C115.259 17.1696 115.391 17.5814 115.651 17.8268C115.91 18.0722 116.348 18.1969 116.958 18.1969C117.288 18.1969 117.585 18.1761 117.845 18.1387C118.105 18.0971 118.39 18.0306 118.708 17.9349V20.601C118.378 20.7133 117.969 20.8006 117.482 20.863C116.995 20.9254 116.562 20.9587 116.183 20.9587L116.179 20.9545Z" fill="white"/>
<path d="M126.257 21C125.032 21 123.918 20.7089 122.915 20.1307C121.917 19.5526 121.125 18.7831 120.543 17.8223C119.962 16.8616 119.669 15.7802 119.669 14.574C119.669 13.3678 119.949 12.303 120.506 11.3256C121.063 10.3523 121.822 9.57873 122.783 9.00475C123.741 8.43494 124.805 8.14795 125.968 8.14795C127.132 8.14795 128.2 8.4391 129.12 9.01723C130.04 9.59536 130.762 10.3856 131.29 11.3838C131.818 12.3821 132.082 13.5258 132.082 14.8111V15.6679H122.973C123.113 16.1586 123.349 16.6037 123.683 16.9988C124.013 17.3939 124.413 17.7017 124.887 17.9138C125.358 18.1301 125.869 18.2341 126.422 18.2341C126.975 18.2341 127.462 18.1509 127.932 17.9846C128.402 17.8182 128.807 17.5769 129.137 17.2608L131.261 19.2115C130.506 19.8313 129.731 20.2805 128.939 20.5674C128.143 20.8544 127.251 20.9958 126.261 20.9958L126.257 21ZM122.928 13.3387H128.922C128.794 12.8479 128.588 12.4153 128.295 12.041C128.002 11.6667 127.656 11.3797 127.247 11.1717C126.839 10.9638 126.397 10.8639 125.927 10.8639C125.424 10.8639 124.966 10.9638 124.557 11.1592C124.149 11.3589 123.807 11.6417 123.53 12.016C123.254 12.3904 123.056 12.8313 122.928 13.3345V13.3387Z" fill="white"/>
<path d="M135.696 20.7632L132.297 8.36865H135.387L137.417 16.3627L139.871 8.36865H142.586L145.016 16.3877L147.046 8.36865H150.065L146.666 20.7632H143.551L141.191 12.8398L138.807 20.7632H135.692H135.696Z" fill="white"/>
<path d="M155.26 20.9751C154.393 20.9751 153.622 20.8129 152.949 20.4884C152.273 20.164 151.745 19.7148 151.369 19.145C150.99 18.5752 150.804 17.918 150.804 17.1694C150.804 15.9798 151.245 15.0565 152.124 14.3993C153.007 13.7422 154.232 13.4136 155.804 13.4136C156.873 13.4136 157.879 13.58 158.824 13.9127V13.0101C158.824 12.2947 158.601 11.7582 158.164 11.3922C157.727 11.0262 157.079 10.8432 156.229 10.8432C155.726 10.8432 155.169 10.9264 154.554 11.0927C153.939 11.2591 153.246 11.517 152.479 11.8663L151.324 9.44151C152.297 9.01311 153.226 8.68869 154.108 8.46409C154.991 8.24365 155.87 8.13135 156.753 8.13135C158.436 8.13135 159.736 8.53064 160.647 9.33337C161.559 10.1361 162.017 11.2633 162.017 12.7231V20.763H158.832V19.8812C158.329 20.2638 157.784 20.5384 157.203 20.713C156.621 20.8877 155.977 20.9751 155.268 20.9751H155.26ZM153.869 17.0987C153.869 17.5728 154.075 17.9513 154.484 18.23C154.892 18.5087 155.437 18.6459 156.113 18.6459C156.65 18.6459 157.141 18.5835 157.59 18.4546C158.04 18.3298 158.453 18.1218 158.828 17.8349V16.0256C158.436 15.8509 158.024 15.7261 157.603 15.6554C157.178 15.5847 156.72 15.5473 156.233 15.5473C155.495 15.5473 154.913 15.6804 154.496 15.9507C154.08 16.2211 153.869 16.5996 153.869 17.0945V17.0987Z" fill="white"/>
<path d="M164.439 20.7633V8.36877H167.694V9.74963C168.074 9.20893 168.54 8.79717 169.097 8.51434C169.654 8.23151 170.281 8.08594 170.974 8.08594C171.588 8.10257 172.034 8.18992 172.319 8.34797V11.2262C172.067 11.1139 171.803 11.0265 171.527 10.9641C171.25 10.9017 170.966 10.8685 170.664 10.8685C170.033 10.8685 169.46 11.0307 168.94 11.3551C168.42 11.6795 168.003 12.137 167.69 12.7235V20.7633H164.435H164.439Z" fill="white"/>
<path d="M178.812 20.9295C177.649 20.9295 176.593 20.6425 175.648 20.0727C174.703 19.5029 173.952 18.7376 173.395 17.7768C172.838 16.816 172.558 15.743 172.558 14.5534C172.558 13.3639 172.838 12.3074 173.395 11.3425C173.952 10.3734 174.711 9.60808 175.673 9.04658C176.634 8.48509 177.711 8.20226 178.907 8.20226C179.522 8.20226 180.108 8.28544 180.665 8.45181C181.221 8.61818 181.754 8.85942 182.257 9.17552V4.10957L185.491 3.56055V20.7632H182.306V19.74C181.3 20.5344 180.136 20.9295 178.812 20.9295ZM179.332 18.147C179.914 18.147 180.458 18.043 180.962 17.8392C181.465 17.6313 181.898 17.3401 182.261 16.9575V12.1286C181.898 11.7626 181.465 11.4839 180.962 11.2843C180.458 11.0846 179.914 10.9848 179.332 10.9848C178.655 10.9848 178.045 11.1387 177.504 11.4506C176.964 11.7626 176.531 12.1826 176.217 12.7234C175.904 13.2641 175.747 13.8671 175.747 14.5326C175.747 15.1981 175.908 15.8511 176.23 16.3876C176.551 16.9283 176.98 17.3567 177.517 17.6728C178.053 17.9889 178.66 18.147 179.336 18.147H179.332Z" fill="white"/>
<path d="M192.596 21.0002C191.494 21.0002 190.459 20.8547 189.493 20.5594C188.524 20.264 187.686 19.8481 186.981 19.3116L188.586 17.1238C189.295 17.598 189.976 17.9557 190.628 18.1927C191.279 18.4298 191.927 18.5504 192.575 18.5504C193.301 18.5504 193.879 18.4298 194.312 18.1803C194.745 17.9349 194.959 17.6146 194.959 17.2153C194.959 16.8992 194.836 16.6455 194.592 16.4542C194.349 16.2629 193.961 16.1298 193.425 16.0507L191.065 15.693C189.852 15.5017 188.928 15.1024 188.293 14.491C187.653 13.8796 187.336 13.0769 187.336 12.0745C187.336 11.2635 187.542 10.5689 187.958 9.98241C188.375 9.39596 188.969 8.9426 189.741 8.6265C190.512 8.31039 191.407 8.15234 192.431 8.15234C193.342 8.15234 194.229 8.28128 195.087 8.53499C195.945 8.78871 196.75 9.17552 197.505 9.69958L195.945 11.8166C195.269 11.3882 194.621 11.0804 193.998 10.8891C193.375 10.6978 192.761 10.6021 192.146 10.6021C191.531 10.6021 191.094 10.7144 190.743 10.9349C190.388 11.1595 190.211 11.4506 190.211 11.8166C190.211 12.1494 190.335 12.4114 190.591 12.6027C190.842 12.7941 191.267 12.9355 191.865 13.0311L194.225 13.3639C195.45 13.5386 196.387 13.9337 197.035 14.5534C197.678 15.1731 198 15.9592 198 16.9075C198 17.702 197.765 18.4049 197.29 19.0121C196.82 19.6235 196.176 20.106 195.368 20.4637C194.559 20.8214 193.631 21.0002 192.596 21.0002Z" fill="white"/>
</g>
<defs>
<clipPath id="clip0_531_364">
<rect width="198" height="21" fill="white"/>
</clipPath>
</defs>
</svg>
