<svg width="1440" height="488" viewBox="0 0 1440 488" fill="none" xmlns="http://www.w3.org/2000/svg">
<g clip-path="url(#clip0_122_83)">
<path fill-rule="evenodd" clip-rule="evenodd" d="M-100 280.84H-406C-396.874 229.29 -361.761 177.566 -308.831 142.702C-307.872 142.071 -306.825 141.363 -305.676 140.587C-280.663 123.683 -207.567 74.2837 40 74.0001C128.994 74.0001 210.433 90.4827 295.38 107.675C387.976 126.416 484.74 146 600 146C773.283 146 874.298 112.818 972.324 80.6175C1040.16 58.3339 1106.57 36.5205 1194.5 26.5001C1360.22 7.61581 1467.34 48.5737 1568.48 87.2432C1598.55 98.7425 1628.1 110.039 1658.5 119.5C1661.45 120.417 1664.35 121.319 1667.22 122.209C1785.79 159.053 1834.39 174.152 1859 280.84H1540V994H-100V280.84Z" fill="white"/>
</g>
<defs>
<clipPath id="clip0_122_83">
<rect width="1440" height="488" fill="white"/>
</clipPath>
</defs>
</svg>
